<svg xmlns="http://www.w3.org/2000/svg" xmlns:xlink="http://www.w3.org/1999/xlink" width="35" height="33.155" viewBox="0 0 35 33.155"><defs><linearGradient id="linear-gradient" x1="1" y1="0.5" x2="0" y2="0.5" gradientUnits="objectBoundingBox"><stop offset="0" stop-color="#1270e3"></stop><stop offset="1" stop-color="#59c2ff"></stop></linearGradient></defs><path id="Union_4" data-name="Union 4" d="M17.5,33.126c-.32.005-4.668.062-5.129,0-.479-.065,0-.448.606-.894a1.711,1.711,0,0,0,.67-1.117l.228-1.454h7.25l.228,1.454a1.713,1.713,0,0,0,.67,1.116c.6.447,1.084.829.606.894-.16.022-.792.029-1.56.029C19.629,33.155,17.709,33.13,17.5,33.126ZM1.4,28.263a1.4,1.4,0,0,1-1.4-1.4V6.563a1.4,1.4,0,0,1,1.4-1.4H21.5l-1.48,2.1H2.1v16.8H32.9V7.263H27.3l1.93-2.1H33.6a1.4,1.4,0,0,1,1.4,1.4v20.3a1.4,1.4,0,0,1-1.4,1.4Zm7.933-7.647c1.937-.014,2.178-.482,2.81-2.426,1.165-3.069,6.408.8,3.158,2.147a10.683,10.683,0,0,1-3.961.684C9.427,21.02,8.149,20.624,9.333,20.615Zm6.409-3.532c-.94-.757-.944-.524.037-1.742L25.715,1.225C26.7.008,28.253-.365,29.193.392s.906,2.357-.075,3.576L17.437,16.679c-.535.663-.71.949-.912.949C16.357,17.627,16.17,17.429,15.742,17.084ZM26.008,1.526a5.4,5.4,0,0,1,.63.556s.17-.725,1.523-1.524a2,2,0,0,0-.267-.015A2.149,2.149,0,0,0,26.008,1.526Z" transform="translate(0 0)" fill="url(#linear-gradient)"></path></svg>