<svg xmlns="http://www.w3.org/2000/svg" xmlns:xlink="http://www.w3.org/1999/xlink" width="35" height="27.344" viewBox="0 0 35 27.344"><defs><linearGradient id="linear-gradient" x1="1" y1="0.571" x2="0" y2="0.571" gradientUnits="objectBoundingBox"><stop offset="0" stop-color="#ff8359"></stop><stop offset="1" stop-color="#ffdf40"></stop></linearGradient></defs><path id="Union_1" data-name="Union 1" d="M2.051,27.344A2.053,2.053,0,0,1,0,25.293V7.52A2.054,2.054,0,0,1,2.051,5.468h.683V4.785A2.053,2.053,0,0,1,4.785,2.734H7.52A2.053,2.053,0,0,1,9.571,4.785v.683h2.611l.978-3.915A2.05,2.05,0,0,1,15.15,0H26.686a2.048,2.048,0,0,1,1.99,1.553l.979,3.915h3.294A2.054,2.054,0,0,1,35,7.52V25.293a2.053,2.053,0,0,1-2.051,2.051Zm-.684-2.051a.685.685,0,0,0,.684.684h30.9a.685.685,0,0,0,.684-.684V7.52a.684.684,0,0,0-.684-.683H2.051a.684.684,0,0,0-.684.683V9.571H6.152A2.053,2.053,0,0,1,8.2,11.621v9.571a2.053,2.053,0,0,1-2.051,2.051H1.367Zm0-3.417H6.152a.685.685,0,0,0,.684-.684V11.621a.684.684,0,0,0-.684-.683H1.367v2.734H3.418a.684.684,0,0,1,0,1.367H1.367v2.734H3.418a.684.684,0,0,1,0,1.367H1.367ZM14.486,1.886l-.9,3.583H28.246l-.9-3.584a.684.684,0,0,0-.664-.518H15.15A.683.683,0,0,0,14.486,1.886ZM4.1,4.785v.683H8.2V4.785A.685.685,0,0,0,7.52,4.1H4.785A.685.685,0,0,0,4.1,4.785Zm8.614,11.621a8.2,8.2,0,1,1,8.2,8.2A8.211,8.211,0,0,1,12.715,16.406Zm1.367,0a6.836,6.836,0,1,0,6.836-6.836A6.844,6.844,0,0,0,14.082,16.406Zm1.367,0a5.469,5.469,0,1,1,5.468,5.469A5.475,5.475,0,0,1,15.449,16.406Zm1.367,0a4.1,4.1,0,1,0,4.1-4.1A4.106,4.106,0,0,0,16.816,16.406Zm1.367,0a2.737,2.737,0,0,1,2.734-2.734.684.684,0,1,1,0,1.367,1.369,1.369,0,0,0-1.367,1.367.684.684,0,1,1-1.367,0ZM28.437,9.571a.684.684,0,0,1,0-1.367h3.145a.684.684,0,1,1,0,1.367ZM19.551,4.1a.684.684,0,0,1,0-1.367h5.468a.684.684,0,1,1,0,1.367Zm-3.418-.683a.684.684,0,1,1,.684.683A.685.685,0,0,1,16.132,3.418Z" fill="url(#linear-gradient)"></path></svg>