<svg xmlns="http://www.w3.org/2000/svg" xmlns:xlink="http://www.w3.org/1999/xlink" width="35" height="32.812" viewBox="0 0 35 32.812"><defs><linearGradient id="linear-gradient" x1="1" y1="0.564" x2="0" y2="0.594" gradientUnits="objectBoundingBox"><stop offset="0" stop-color="#b122e5"></stop><stop offset="1" stop-color="#ff63de"></stop></linearGradient></defs><path id="Union_3" data-name="Union 3" d="M2.051,32.812A2.053,2.053,0,0,1,0,30.762V2.051A2.053,2.053,0,0,1,2.051,0h30.9A2.053,2.053,0,0,1,35,2.051V30.762a2.053,2.053,0,0,1-2.051,2.05Zm-.684-2.05a.684.684,0,0,0,.684.683h30.9a.684.684,0,0,0,.684-.683V6.836H1.367Zm0-28.711V5.468H33.633V2.051a.685.685,0,0,0-.684-.684H2.051A.685.685,0,0,0,1.367,2.051ZM15.459,27.915l2.734-16.406a.683.683,0,1,1,1.348.225L16.808,28.14a.683.683,0,1,1-1.348-.225Zm7.025-2.139a.684.684,0,0,1,0-.967l4.986-4.985-4.986-4.985a.684.684,0,1,1,.967-.967l5.468,5.469a.683.683,0,0,1,0,.967l-5.468,5.468a.683.683,0,0,1-.967,0Zm-10.937,0L6.079,20.308a.684.684,0,0,1,0-.967l5.469-5.469a.684.684,0,0,1,.967.967L7.529,19.824l4.985,4.985a.683.683,0,1,1-.967.967ZM24.336,4.1a.684.684,0,1,1,0-1.367h5.879a.684.684,0,0,1,0,1.367Zm-3.418-.683A.684.684,0,1,1,21.6,4.1.684.684,0,0,1,20.918,3.418Zm-10.938,0a.684.684,0,1,1,.684.683A.684.684,0,0,1,9.98,3.418Zm-2.734,0A.684.684,0,1,1,7.93,4.1.684.684,0,0,1,7.246,3.418Zm-2.734,0A.684.684,0,1,1,5.2,4.1.684.684,0,0,1,4.512,3.418Z" fill="url(#linear-gradient)"></path></svg>