<svg xmlns="http://www.w3.org/2000/svg" xmlns:xlink="http://www.w3.org/1999/xlink" width="35" height="32.812" viewBox="0 0 35 32.812"><defs><linearGradient id="linear-gradient" x1="1" y1="0.5" x2="0" y2="0.5" gradientUnits="objectBoundingBox"><stop offset="0" stop-color="#29b3ba"></stop><stop offset="1" stop-color="#46eeaa"></stop></linearGradient></defs><path id="Union_2" data-name="Union 2" d="M9.3,32.812a.684.684,0,0,1-.684-.683V28.711H6.563a.684.684,0,0,1-.684-.683V25.977H2.051A2.053,2.053,0,0,1,0,23.926v-12.3a2.053,2.053,0,0,1,2.051-2.05H5a5.467,5.467,0,1,1,8.4-6.746,5.467,5.467,0,1,1,8.4,6.746h2.541a2.053,2.053,0,0,1,2.051,2.05V12.3h1.835l5.7-3.979A.684.684,0,0,1,35,8.887V25.293a.683.683,0,0,1-1.075.561l-5.7-3.978H26.387v2.05a2.054,2.054,0,0,1-2.051,2.051H20.918v2.051a.683.683,0,0,1-.683.683H18.184v3.418a.684.684,0,0,1-.684.683Zm.683-1.367h6.836V28.711H9.98Zm-2.734-4.1h12.3V25.977H7.246ZM1.367,11.621v12.3a.685.685,0,0,0,.684.684H24.336a.685.685,0,0,0,.684-.684v-12.3a.685.685,0,0,0-.684-.683H2.051A.685.685,0,0,0,1.367,11.621Zm27.754,1.724v7.49l4.512,3.147V10.2Zm-2.734,7.162h1.367V13.672H26.387ZM14.082,5.468a4.1,4.1,0,1,0,4.1-4.1A4.106,4.106,0,0,0,14.082,5.468Zm-1.858,4.1h2.347A5.53,5.53,0,0,1,13.4,8.113,5.512,5.512,0,0,1,12.225,9.571Zm-7.713-4.1a4.1,4.1,0,1,0,4.1-4.1A4.106,4.106,0,0,0,4.512,5.468ZM7.93,21.875a.684.684,0,1,1,0-1.368H21.6a.684.684,0,0,1,0,1.368Zm-3.418-.684a.684.684,0,1,1,.684.684A.684.684,0,0,1,4.512,21.191Zm16.406-2.734a.684.684,0,1,1,.684.683A.685.685,0,0,1,20.918,18.457ZM5.2,19.14a.684.684,0,0,1-.684-.683v-4.1a.684.684,0,0,1,.684-.684h9.57a.684.684,0,0,1,.684.684v4.1a.684.684,0,0,1-.684.683Zm.683-1.367h8.2V15.039h-8.2Zm15.039-3.417a.684.684,0,1,1,.684.683A.684.684,0,0,1,20.918,14.356ZM16.132,5.468A2.051,2.051,0,1,1,18.184,7.52,2.053,2.053,0,0,1,16.132,5.468Zm1.368,0a.684.684,0,1,0,.683-.683A.684.684,0,0,0,17.5,5.468Zm-10.938,0A2.051,2.051,0,1,1,8.613,7.52,2.053,2.053,0,0,1,6.563,5.468Zm1.367,0a.684.684,0,1,0,.683-.683A.684.684,0,0,0,7.93,5.468Z" fill="url(#linear-gradient)"></path></svg>